<mxfile host="app.diagrams.net" agent="Mozilla/5.0 (Windows NT 10.0; Win64; x64) AppleWebKit/537.36 (KHTML, like Gecko) Chrome/134.0.0.0 Safari/537.36" version="26.1.3">
  <diagram name="第 1 页" id="tc5elYwJu0cgVewppHAa">
    <mxGraphModel dx="1185" dy="627" grid="1" gridSize="10" guides="1" tooltips="1" connect="1" arrows="1" fold="1" page="1" pageScale="1" pageWidth="827" pageHeight="1169" math="0" shadow="0">
      <root>
        <mxCell id="0" />
        <mxCell id="1" parent="0" />
        <mxCell id="Xfd4wPt-sxRWyP5GaCoD-64" value="&lt;i&gt;O&lt;sub&gt;11&lt;/sub&gt;&lt;/i&gt;" style="text;strokeColor=none;align=center;fillColor=none;html=1;verticalAlign=middle;whiteSpace=wrap;rounded=0;fontSize=12;fontFamily=Times New Roman;" vertex="1" parent="1">
          <mxGeometry x="160.5" y="960" width="40" height="30" as="geometry" />
        </mxCell>
        <mxCell id="Xfd4wPt-sxRWyP5GaCoD-65" value="&lt;i&gt;O&lt;span&gt;&lt;sub&gt;12&lt;/sub&gt;&lt;/span&gt;&lt;/i&gt;" style="text;strokeColor=none;align=center;fillColor=none;html=1;verticalAlign=middle;whiteSpace=wrap;rounded=0;fontSize=12;fontFamily=Times New Roman;" vertex="1" parent="1">
          <mxGeometry x="280.5" y="960" width="40" height="30" as="geometry" />
        </mxCell>
        <mxCell id="Xfd4wPt-sxRWyP5GaCoD-66" value="&lt;i&gt;O&lt;sub&gt;13&lt;/sub&gt;&lt;/i&gt;" style="text;strokeColor=none;align=center;fillColor=none;html=1;verticalAlign=middle;whiteSpace=wrap;rounded=0;fontSize=12;fontFamily=Times New Roman;" vertex="1" parent="1">
          <mxGeometry x="360.5" y="960" width="40" height="30" as="geometry" />
        </mxCell>
        <mxCell id="Xfd4wPt-sxRWyP5GaCoD-67" value="&lt;i&gt;O&lt;sub&gt;33&lt;/sub&gt;&lt;/i&gt;" style="text;strokeColor=none;align=center;fillColor=none;html=1;verticalAlign=middle;whiteSpace=wrap;rounded=0;fontSize=12;fontFamily=Times New Roman;" vertex="1" parent="1">
          <mxGeometry x="440.5" y="960" width="40" height="30" as="geometry" />
        </mxCell>
        <mxCell id="Xfd4wPt-sxRWyP5GaCoD-68" value="&lt;i&gt;O&lt;sub&gt;32&lt;/sub&gt;&lt;/i&gt;" style="text;strokeColor=none;align=center;fillColor=none;html=1;verticalAlign=middle;whiteSpace=wrap;rounded=0;fontSize=12;fontFamily=Times New Roman;" vertex="1" parent="1">
          <mxGeometry x="400.5" y="960" width="40" height="30" as="geometry" />
        </mxCell>
        <mxCell id="Xfd4wPt-sxRWyP5GaCoD-69" value="&lt;i&gt;O&lt;sub&gt;31&lt;/sub&gt;&lt;/i&gt;" style="text;strokeColor=none;align=center;fillColor=none;html=1;verticalAlign=middle;whiteSpace=wrap;rounded=0;fontSize=12;fontFamily=Times New Roman;" vertex="1" parent="1">
          <mxGeometry x="240.5" y="960" width="40" height="30" as="geometry" />
        </mxCell>
        <mxCell id="Xfd4wPt-sxRWyP5GaCoD-70" value="&lt;i&gt;O&lt;span&gt;&lt;sub&gt;21&lt;/sub&gt;&lt;/span&gt;&lt;/i&gt;" style="text;strokeColor=none;align=center;fillColor=none;html=1;verticalAlign=middle;whiteSpace=wrap;rounded=0;fontSize=12;fontFamily=Times New Roman;" vertex="1" parent="1">
          <mxGeometry x="200.5" y="960" width="40" height="30" as="geometry" />
        </mxCell>
        <mxCell id="Xfd4wPt-sxRWyP5GaCoD-71" value="&lt;i&gt;O&lt;span&gt;&lt;sub&gt;23&lt;/sub&gt;&lt;/span&gt;&lt;/i&gt;" style="text;strokeColor=none;align=center;fillColor=none;html=1;verticalAlign=middle;whiteSpace=wrap;rounded=0;fontSize=12;fontFamily=Times New Roman;" vertex="1" parent="1">
          <mxGeometry x="480.5" y="960" width="40" height="30" as="geometry" />
        </mxCell>
        <mxCell id="Xfd4wPt-sxRWyP5GaCoD-72" value="&lt;i&gt;O&lt;span&gt;&lt;sub&gt;22&lt;/sub&gt;&lt;/span&gt;&lt;/i&gt;" style="text;strokeColor=none;align=center;fillColor=none;html=1;verticalAlign=middle;whiteSpace=wrap;rounded=0;fontSize=12;fontFamily=Times New Roman;" vertex="1" parent="1">
          <mxGeometry x="320.5" y="960" width="40" height="30" as="geometry" />
        </mxCell>
        <mxCell id="Xfd4wPt-sxRWyP5GaCoD-73" value="OS" style="text;html=1;align=center;verticalAlign=middle;resizable=0;points=[];autosize=1;strokeColor=none;fillColor=none;fontFamily=Times New Roman;" vertex="1" parent="1">
          <mxGeometry x="120.5" y="995" width="40" height="30" as="geometry" />
        </mxCell>
        <mxCell id="Xfd4wPt-sxRWyP5GaCoD-74" value="MA" style="text;html=1;align=center;verticalAlign=middle;resizable=0;points=[];autosize=1;strokeColor=none;fillColor=none;fontFamily=Times New Roman;" vertex="1" parent="1">
          <mxGeometry x="120.5" y="1075" width="40" height="30" as="geometry" />
        </mxCell>
        <mxCell id="Xfd4wPt-sxRWyP5GaCoD-75" value="RA" style="text;html=1;align=center;verticalAlign=middle;resizable=0;points=[];autosize=1;strokeColor=none;fillColor=none;fontFamily=Times New Roman;" vertex="1" parent="1">
          <mxGeometry x="120.5" y="1155" width="40" height="30" as="geometry" />
        </mxCell>
        <mxCell id="Xfd4wPt-sxRWyP5GaCoD-76" value="&lt;i&gt;Job&lt;sub&gt;1&lt;/sub&gt;&lt;/i&gt;" style="text;strokeColor=none;align=center;fillColor=none;html=1;verticalAlign=middle;whiteSpace=wrap;rounded=0;fontSize=12;fontFamily=Times New Roman;" vertex="1" parent="1">
          <mxGeometry x="520.5" y="1120" width="40" height="30" as="geometry" />
        </mxCell>
        <mxCell id="Xfd4wPt-sxRWyP5GaCoD-77" value="&lt;i&gt;Job&lt;sub&gt;3&lt;/sub&gt;&lt;/i&gt;" style="text;strokeColor=none;align=center;fillColor=none;html=1;verticalAlign=middle;whiteSpace=wrap;rounded=0;fontSize=12;fontFamily=Times New Roman;" vertex="1" parent="1">
          <mxGeometry x="600.5" y="1120" width="40" height="30" as="geometry" />
        </mxCell>
        <mxCell id="Xfd4wPt-sxRWyP5GaCoD-78" value="&lt;i&gt;Job&lt;span&gt;&lt;sub&gt;2&lt;/sub&gt;&lt;/span&gt;&lt;/i&gt;" style="text;strokeColor=none;align=center;fillColor=none;html=1;verticalAlign=middle;whiteSpace=wrap;rounded=0;fontSize=12;fontFamily=Times New Roman;" vertex="1" parent="1">
          <mxGeometry x="559.5" y="1120" width="41" height="30" as="geometry" />
        </mxCell>
        <mxCell id="Xfd4wPt-sxRWyP5GaCoD-79" style="rounded=0;orthogonalLoop=1;jettySize=auto;html=1;exitX=0.5;exitY=1;exitDx=0;exitDy=0;entryX=0.5;entryY=0;entryDx=0;entryDy=0;" edge="1" parent="1" source="Xfd4wPt-sxRWyP5GaCoD-80" target="Xfd4wPt-sxRWyP5GaCoD-97">
          <mxGeometry relative="1" as="geometry" />
        </mxCell>
        <mxCell id="Xfd4wPt-sxRWyP5GaCoD-80" value="1" style="whiteSpace=wrap;html=1;aspect=fixed;fillColor=#35B0AB;strokeColor=light-dark(#000000,#446E2C);strokeWidth=1;fontFamily=Times New Roman;" vertex="1" parent="1">
          <mxGeometry x="160.5" y="990" width="40" height="40" as="geometry" />
        </mxCell>
        <mxCell id="Xfd4wPt-sxRWyP5GaCoD-81" style="rounded=0;orthogonalLoop=1;jettySize=auto;html=1;exitX=0.5;exitY=1;exitDx=0;exitDy=0;entryX=0.5;entryY=0;entryDx=0;entryDy=0;" edge="1" parent="1" source="Xfd4wPt-sxRWyP5GaCoD-82" target="Xfd4wPt-sxRWyP5GaCoD-99">
          <mxGeometry relative="1" as="geometry" />
        </mxCell>
        <mxCell id="Xfd4wPt-sxRWyP5GaCoD-82" value="2" style="whiteSpace=wrap;html=1;aspect=fixed;fillColor=#C5F0A4;strokeColor=light-dark(#000000,#446E2C);strokeWidth=1;fontFamily=Times New Roman;" vertex="1" parent="1">
          <mxGeometry x="200.5" y="990" width="40" height="40" as="geometry" />
        </mxCell>
        <mxCell id="Xfd4wPt-sxRWyP5GaCoD-83" style="rounded=0;orthogonalLoop=1;jettySize=auto;html=1;exitX=0.5;exitY=1;exitDx=0;exitDy=0;entryX=0.5;entryY=0;entryDx=0;entryDy=0;" edge="1" parent="1" source="Xfd4wPt-sxRWyP5GaCoD-84" target="Xfd4wPt-sxRWyP5GaCoD-98">
          <mxGeometry relative="1" as="geometry" />
        </mxCell>
        <mxCell id="Xfd4wPt-sxRWyP5GaCoD-84" value="1" style="whiteSpace=wrap;html=1;aspect=fixed;fillColor=#35B0AB;strokeColor=light-dark(#000000,#446E2C);strokeWidth=1;fontFamily=Times New Roman;" vertex="1" parent="1">
          <mxGeometry x="280.5" y="990" width="40" height="40" as="geometry" />
        </mxCell>
        <mxCell id="Xfd4wPt-sxRWyP5GaCoD-85" style="rounded=0;orthogonalLoop=1;jettySize=auto;html=1;exitX=0.5;exitY=1;exitDx=0;exitDy=0;entryX=0.5;entryY=0;entryDx=0;entryDy=0;" edge="1" parent="1" source="Xfd4wPt-sxRWyP5GaCoD-86" target="Xfd4wPt-sxRWyP5GaCoD-101">
          <mxGeometry relative="1" as="geometry" />
        </mxCell>
        <mxCell id="Xfd4wPt-sxRWyP5GaCoD-86" value="3" style="whiteSpace=wrap;html=1;aspect=fixed;fillColor=#FAFFB8;strokeColor=light-dark(#000000,#446E2C);strokeWidth=1;fontFamily=Times New Roman;" vertex="1" parent="1">
          <mxGeometry x="240.5" y="990" width="40" height="40" as="geometry" />
        </mxCell>
        <mxCell id="Xfd4wPt-sxRWyP5GaCoD-87" style="rounded=0;orthogonalLoop=1;jettySize=auto;html=1;exitX=0.5;exitY=1;exitDx=0;exitDy=0;entryX=0.5;entryY=0;entryDx=0;entryDy=0;" edge="1" parent="1" source="Xfd4wPt-sxRWyP5GaCoD-88" target="Xfd4wPt-sxRWyP5GaCoD-104">
          <mxGeometry relative="1" as="geometry" />
        </mxCell>
        <mxCell id="Xfd4wPt-sxRWyP5GaCoD-88" value="3" style="whiteSpace=wrap;html=1;aspect=fixed;fillColor=#FAFFB8;strokeColor=light-dark(#000000,#446E2C);strokeWidth=1;fontFamily=Times New Roman;" vertex="1" parent="1">
          <mxGeometry x="400.5" y="990" width="40" height="40" as="geometry" />
        </mxCell>
        <mxCell id="Xfd4wPt-sxRWyP5GaCoD-89" style="rounded=0;orthogonalLoop=1;jettySize=auto;html=1;exitX=0.5;exitY=1;exitDx=0;exitDy=0;entryX=0.5;entryY=0;entryDx=0;entryDy=0;" edge="1" parent="1" source="Xfd4wPt-sxRWyP5GaCoD-90" target="Xfd4wPt-sxRWyP5GaCoD-100">
          <mxGeometry relative="1" as="geometry" />
        </mxCell>
        <mxCell id="Xfd4wPt-sxRWyP5GaCoD-90" value="1" style="whiteSpace=wrap;html=1;aspect=fixed;fillColor=#35B0AB;strokeColor=light-dark(#000000,#446E2C);strokeWidth=1;fontFamily=Times New Roman;" vertex="1" parent="1">
          <mxGeometry x="360.5" y="990" width="40" height="40" as="geometry" />
        </mxCell>
        <mxCell id="Xfd4wPt-sxRWyP5GaCoD-91" style="rounded=0;orthogonalLoop=1;jettySize=auto;html=1;exitX=0.5;exitY=1;exitDx=0;exitDy=0;entryX=0.5;entryY=0;entryDx=0;entryDy=0;" edge="1" parent="1" source="Xfd4wPt-sxRWyP5GaCoD-92" target="Xfd4wPt-sxRWyP5GaCoD-103">
          <mxGeometry relative="1" as="geometry" />
        </mxCell>
        <mxCell id="Xfd4wPt-sxRWyP5GaCoD-92" value="2" style="whiteSpace=wrap;html=1;aspect=fixed;fillColor=#C5F0A4;strokeColor=light-dark(#000000,#446E2C);strokeWidth=1;fontFamily=Times New Roman;" vertex="1" parent="1">
          <mxGeometry x="320.5" y="990" width="40" height="40" as="geometry" />
        </mxCell>
        <mxCell id="Xfd4wPt-sxRWyP5GaCoD-93" style="rounded=0;orthogonalLoop=1;jettySize=auto;html=1;exitX=0.5;exitY=1;exitDx=0;exitDy=0;entryX=0.5;entryY=0;entryDx=0;entryDy=0;" edge="1" parent="1" source="Xfd4wPt-sxRWyP5GaCoD-94" target="Xfd4wPt-sxRWyP5GaCoD-105">
          <mxGeometry relative="1" as="geometry" />
        </mxCell>
        <mxCell id="Xfd4wPt-sxRWyP5GaCoD-94" value="3" style="whiteSpace=wrap;html=1;aspect=fixed;fillColor=#FAFFB8;strokeColor=light-dark(#000000,#446E2C);strokeWidth=1;fontFamily=Times New Roman;" vertex="1" parent="1">
          <mxGeometry x="440.5" y="990" width="40" height="40" as="geometry" />
        </mxCell>
        <mxCell id="Xfd4wPt-sxRWyP5GaCoD-95" style="rounded=0;orthogonalLoop=1;jettySize=auto;html=1;exitX=0.5;exitY=1;exitDx=0;exitDy=0;entryX=0.5;entryY=0;entryDx=0;entryDy=0;" edge="1" parent="1" source="Xfd4wPt-sxRWyP5GaCoD-96" target="Xfd4wPt-sxRWyP5GaCoD-102">
          <mxGeometry relative="1" as="geometry" />
        </mxCell>
        <mxCell id="Xfd4wPt-sxRWyP5GaCoD-96" value="2" style="whiteSpace=wrap;html=1;aspect=fixed;fillColor=#C5F0A4;strokeColor=light-dark(#000000,#446E2C);strokeWidth=1;fontFamily=Times New Roman;" vertex="1" parent="1">
          <mxGeometry x="480.5" y="990" width="40" height="40" as="geometry" />
        </mxCell>
        <mxCell id="Xfd4wPt-sxRWyP5GaCoD-97" value="1" style="whiteSpace=wrap;html=1;aspect=fixed;fillColor=#35B0AB;strokeColor=light-dark(#000000,#446E2C);strokeWidth=1;fontFamily=Times New Roman;" vertex="1" parent="1">
          <mxGeometry x="160.5" y="1070" width="40" height="40" as="geometry" />
        </mxCell>
        <mxCell id="Xfd4wPt-sxRWyP5GaCoD-98" value="2" style="whiteSpace=wrap;html=1;aspect=fixed;fillColor=#35B0AB;strokeColor=light-dark(#000000,#446E2C);strokeWidth=1;fontFamily=Times New Roman;" vertex="1" parent="1">
          <mxGeometry x="200.5" y="1070" width="40" height="40" as="geometry" />
        </mxCell>
        <mxCell id="Xfd4wPt-sxRWyP5GaCoD-99" value="3" style="whiteSpace=wrap;html=1;aspect=fixed;fillColor=#C5F0A4;strokeColor=light-dark(#000000,#446E2C);strokeWidth=1;fontFamily=Times New Roman;" vertex="1" parent="1">
          <mxGeometry x="280.5" y="1070" width="40" height="40" as="geometry" />
        </mxCell>
        <mxCell id="Xfd4wPt-sxRWyP5GaCoD-100" value="2" style="whiteSpace=wrap;html=1;aspect=fixed;fillColor=#35B0AB;strokeColor=light-dark(#000000,#446E2C);strokeWidth=1;fontFamily=Times New Roman;" vertex="1" parent="1">
          <mxGeometry x="240.5" y="1070" width="40" height="40" as="geometry" />
        </mxCell>
        <mxCell id="Xfd4wPt-sxRWyP5GaCoD-101" value="1" style="whiteSpace=wrap;html=1;aspect=fixed;fillColor=#FAFFB8;strokeColor=light-dark(#000000,#446E2C);strokeWidth=1;fontFamily=Times New Roman;" vertex="1" parent="1">
          <mxGeometry x="400.5" y="1070" width="40" height="40" as="geometry" />
        </mxCell>
        <mxCell id="Xfd4wPt-sxRWyP5GaCoD-102" value="2" style="whiteSpace=wrap;html=1;aspect=fixed;fillColor=#C5F0A4;strokeColor=light-dark(#000000,#446E2C);strokeWidth=1;fontFamily=Times New Roman;" vertex="1" parent="1">
          <mxGeometry x="360.5" y="1070" width="40" height="40" as="geometry" />
        </mxCell>
        <mxCell id="Xfd4wPt-sxRWyP5GaCoD-103" value="3" style="whiteSpace=wrap;html=1;aspect=fixed;fillColor=#C5F0A4;strokeColor=light-dark(#000000,#446E2C);strokeWidth=1;fontFamily=Times New Roman;" vertex="1" parent="1">
          <mxGeometry x="320.5" y="1070" width="40" height="40" as="geometry" />
        </mxCell>
        <mxCell id="Xfd4wPt-sxRWyP5GaCoD-104" value="3" style="whiteSpace=wrap;html=1;aspect=fixed;fillColor=#FAFFB8;strokeColor=light-dark(#000000,#446E2C);strokeWidth=1;fontFamily=Times New Roman;" vertex="1" parent="1">
          <mxGeometry x="440.5" y="1070" width="40" height="40" as="geometry" />
        </mxCell>
        <mxCell id="Xfd4wPt-sxRWyP5GaCoD-105" value="3" style="whiteSpace=wrap;html=1;aspect=fixed;fillColor=#FAFFB8;strokeColor=light-dark(#000000,#446E2C);strokeWidth=1;fontFamily=Times New Roman;" vertex="1" parent="1">
          <mxGeometry x="480.5" y="1070" width="40" height="40" as="geometry" />
        </mxCell>
        <mxCell id="Xfd4wPt-sxRWyP5GaCoD-106" value="2" style="whiteSpace=wrap;html=1;aspect=fixed;fillColor=#35B0AB;strokeColor=light-dark(#000000,#446E2C);strokeWidth=1;fontFamily=Times New Roman;" vertex="1" parent="1">
          <mxGeometry x="161" y="1150" width="40" height="40" as="geometry" />
        </mxCell>
        <mxCell id="Xfd4wPt-sxRWyP5GaCoD-107" value="2" style="whiteSpace=wrap;html=1;aspect=fixed;fillColor=#C5F0A4;strokeColor=light-dark(#000000,#446E2C);strokeWidth=1;fontFamily=Times New Roman;" vertex="1" parent="1">
          <mxGeometry x="201" y="1150" width="40" height="40" as="geometry" />
        </mxCell>
        <mxCell id="Xfd4wPt-sxRWyP5GaCoD-108" value="1" style="whiteSpace=wrap;html=1;aspect=fixed;fillColor=#35B0AB;strokeColor=light-dark(#000000,#446E2C);strokeWidth=1;fontFamily=Times New Roman;" vertex="1" parent="1">
          <mxGeometry x="281" y="1150" width="40" height="40" as="geometry" />
        </mxCell>
        <mxCell id="Xfd4wPt-sxRWyP5GaCoD-109" value="1" style="whiteSpace=wrap;html=1;aspect=fixed;fillColor=#FAFFB8;strokeColor=light-dark(#000000,#446E2C);strokeWidth=1;fontFamily=Times New Roman;" vertex="1" parent="1">
          <mxGeometry x="241" y="1150" width="40" height="40" as="geometry" />
        </mxCell>
        <mxCell id="Xfd4wPt-sxRWyP5GaCoD-110" value="1" style="whiteSpace=wrap;html=1;aspect=fixed;fillColor=#FAFFB8;strokeColor=light-dark(#000000,#446E2C);strokeWidth=1;fontFamily=Times New Roman;" vertex="1" parent="1">
          <mxGeometry x="401" y="1150" width="40" height="40" as="geometry" />
        </mxCell>
        <mxCell id="Xfd4wPt-sxRWyP5GaCoD-111" value="1" style="whiteSpace=wrap;html=1;aspect=fixed;fillColor=#35B0AB;strokeColor=light-dark(#000000,#446E2C);strokeWidth=1;fontFamily=Times New Roman;" vertex="1" parent="1">
          <mxGeometry x="361" y="1150" width="40" height="40" as="geometry" />
        </mxCell>
        <mxCell id="Xfd4wPt-sxRWyP5GaCoD-112" value="2" style="whiteSpace=wrap;html=1;aspect=fixed;fillColor=#C5F0A4;strokeColor=light-dark(#000000,#446E2C);strokeWidth=1;fontFamily=Times New Roman;" vertex="1" parent="1">
          <mxGeometry x="321" y="1150" width="40" height="40" as="geometry" />
        </mxCell>
        <mxCell id="Xfd4wPt-sxRWyP5GaCoD-113" value="1" style="whiteSpace=wrap;html=1;aspect=fixed;fillColor=#FAFFB8;strokeColor=light-dark(#000000,#446E2C);strokeWidth=1;fontFamily=Times New Roman;" vertex="1" parent="1">
          <mxGeometry x="441" y="1150" width="40" height="40" as="geometry" />
        </mxCell>
        <mxCell id="Xfd4wPt-sxRWyP5GaCoD-114" value="1" style="whiteSpace=wrap;html=1;aspect=fixed;fillColor=#C5F0A4;strokeColor=light-dark(#000000,#446E2C);strokeWidth=1;fontFamily=Times New Roman;" vertex="1" parent="1">
          <mxGeometry x="481" y="1150" width="40" height="40" as="geometry" />
        </mxCell>
        <mxCell id="Xfd4wPt-sxRWyP5GaCoD-115" value="2" style="whiteSpace=wrap;html=1;aspect=fixed;fillColor=#35B0AB;strokeColor=light-dark(#000000,#446E2C);strokeWidth=1;fontFamily=Times New Roman;" vertex="1" parent="1">
          <mxGeometry x="520.5" y="1150" width="40" height="40" as="geometry" />
        </mxCell>
        <mxCell id="Xfd4wPt-sxRWyP5GaCoD-116" value="1" style="whiteSpace=wrap;html=1;aspect=fixed;fillColor=#FAFFB8;strokeColor=light-dark(#000000,#446E2C);strokeWidth=1;fontFamily=Times New Roman;" vertex="1" parent="1">
          <mxGeometry x="600.5" y="1150" width="40" height="40" as="geometry" />
        </mxCell>
        <mxCell id="Xfd4wPt-sxRWyP5GaCoD-117" value="2" style="whiteSpace=wrap;html=1;aspect=fixed;fillColor=#C5F0A4;strokeColor=light-dark(#000000,#446E2C);strokeWidth=1;fontFamily=Times New Roman;" vertex="1" parent="1">
          <mxGeometry x="560.5" y="1150" width="40" height="40" as="geometry" />
        </mxCell>
        <mxCell id="Xfd4wPt-sxRWyP5GaCoD-118" value="&lt;i&gt;O&lt;sub&gt;11&lt;/sub&gt;&lt;/i&gt;" style="text;strokeColor=none;align=center;fillColor=none;html=1;verticalAlign=middle;whiteSpace=wrap;rounded=0;fontSize=12;fontFamily=Times New Roman;" vertex="1" parent="1">
          <mxGeometry x="160.5" y="1120" width="40" height="30" as="geometry" />
        </mxCell>
        <mxCell id="Xfd4wPt-sxRWyP5GaCoD-119" value="&lt;i&gt;O&lt;span&gt;&lt;sub&gt;12&lt;/sub&gt;&lt;/span&gt;&lt;/i&gt;" style="text;strokeColor=none;align=center;fillColor=none;html=1;verticalAlign=middle;whiteSpace=wrap;rounded=0;fontSize=12;fontFamily=Times New Roman;" vertex="1" parent="1">
          <mxGeometry x="280.5" y="1120" width="40" height="30" as="geometry" />
        </mxCell>
        <mxCell id="Xfd4wPt-sxRWyP5GaCoD-120" value="&lt;i&gt;O&lt;sub&gt;13&lt;/sub&gt;&lt;/i&gt;" style="text;strokeColor=none;align=center;fillColor=none;html=1;verticalAlign=middle;whiteSpace=wrap;rounded=0;fontSize=12;fontFamily=Times New Roman;" vertex="1" parent="1">
          <mxGeometry x="360.5" y="1120" width="40" height="30" as="geometry" />
        </mxCell>
        <mxCell id="Xfd4wPt-sxRWyP5GaCoD-121" value="&lt;i&gt;O&lt;sub&gt;33&lt;/sub&gt;&lt;/i&gt;" style="text;strokeColor=none;align=center;fillColor=none;html=1;verticalAlign=middle;whiteSpace=wrap;rounded=0;fontSize=12;fontFamily=Times New Roman;" vertex="1" parent="1">
          <mxGeometry x="440.5" y="1120" width="40" height="30" as="geometry" />
        </mxCell>
        <mxCell id="Xfd4wPt-sxRWyP5GaCoD-122" value="&lt;i&gt;O&lt;sub&gt;32&lt;/sub&gt;&lt;/i&gt;" style="text;strokeColor=none;align=center;fillColor=none;html=1;verticalAlign=middle;whiteSpace=wrap;rounded=0;fontSize=12;fontFamily=Times New Roman;" vertex="1" parent="1">
          <mxGeometry x="400.5" y="1120" width="40" height="30" as="geometry" />
        </mxCell>
        <mxCell id="Xfd4wPt-sxRWyP5GaCoD-123" value="&lt;i&gt;O&lt;sub&gt;31&lt;/sub&gt;&lt;/i&gt;" style="text;strokeColor=none;align=center;fillColor=none;html=1;verticalAlign=middle;whiteSpace=wrap;rounded=0;fontSize=12;fontFamily=Times New Roman;" vertex="1" parent="1">
          <mxGeometry x="240.5" y="1120" width="40" height="30" as="geometry" />
        </mxCell>
        <mxCell id="Xfd4wPt-sxRWyP5GaCoD-124" value="&lt;i&gt;O&lt;span&gt;&lt;sub&gt;21&lt;/sub&gt;&lt;/span&gt;&lt;/i&gt;" style="text;strokeColor=none;align=center;fillColor=none;html=1;verticalAlign=middle;whiteSpace=wrap;rounded=0;fontSize=12;fontFamily=Times New Roman;" vertex="1" parent="1">
          <mxGeometry x="200.5" y="1120" width="40" height="30" as="geometry" />
        </mxCell>
        <mxCell id="Xfd4wPt-sxRWyP5GaCoD-125" value="&lt;i&gt;O&lt;span&gt;&lt;sub&gt;23&lt;/sub&gt;&lt;/span&gt;&lt;/i&gt;" style="text;strokeColor=none;align=center;fillColor=none;html=1;verticalAlign=middle;whiteSpace=wrap;rounded=0;fontSize=12;fontFamily=Times New Roman;" vertex="1" parent="1">
          <mxGeometry x="480.5" y="1120" width="40" height="30" as="geometry" />
        </mxCell>
        <mxCell id="Xfd4wPt-sxRWyP5GaCoD-126" value="&lt;i&gt;O&lt;span&gt;&lt;sub&gt;22&lt;/sub&gt;&lt;/span&gt;&lt;/i&gt;" style="text;strokeColor=none;align=center;fillColor=none;html=1;verticalAlign=middle;whiteSpace=wrap;rounded=0;fontSize=12;fontFamily=Times New Roman;" vertex="1" parent="1">
          <mxGeometry x="320.5" y="1120" width="40" height="30" as="geometry" />
        </mxCell>
      </root>
    </mxGraphModel>
  </diagram>
</mxfile>
